<svg xmlns="http://www.w3.org/2000/svg" viewBox="0 0 24 24" fill="currentColor">
  <path d="M4.583 17.321C3.553 16.227 3 15 3 13.011c0-3.5 2.457-6.637 6.03-8.188l.893 1.378c-3.335 1.774-3.942 4.013-4.03 5.445.823-.989 2.041-1.425 3.14-1.425 2.215 0 3.863 1.644 3.863 3.751 0 2.2-1.797 3.928-3.997 3.928-1.374 0-2.735-.643-4.316-1.78zm11 0C14.553 16.227 14 15 14 13.011c0-3.5 2.457-6.637 6.03-8.188l.893 1.378c-3.335 1.774-3.942 4.013-4.03 5.445.823-.989 2.041-1.425 3.14-1.425 2.215 0 3.863 1.644 3.863 3.751 0 2.2-1.797 3.928-3.997 3.928-1.374 0-2.735-.643-4.316-1.78z"/>
</svg>
